<svg xmlns="http://www.w3.org/2000/svg" xmlns:xlink="http://www.w3.org/1999/xlink" width="512" zoomAndPan="magnify" viewBox="520 285 460 460" height="512" preserveAspectRatio="xMidYMid meet" version="1.0"><defs><g/><clipPath id="a00c6f642c"><path d="M 531.160156 295.304688 L 969 295.304688 L 969 733 L 531.160156 733 Z M 531.160156 295.304688 " clip-rule="nonzero"/></clipPath><clipPath id="728acfea9b"><path d="M 711.316406 391.132812 L 788.566406 391.132812 L 788.566406 454.882812 L 711.316406 454.882812 Z M 711.316406 391.132812 " clip-rule="nonzero"/></clipPath><clipPath id="f1a2e6db29"><rect x="0" width="787" y="0" height="187"/></clipPath><clipPath id="1688a4f139"><rect x="0" width="425" y="0" height="68"/></clipPath><clipPath id="b39fb176d3"><path d="M 116 6 L 121.601562 6 L 121.601562 22 L 116 22 Z M 116 6 " clip-rule="nonzero"/></clipPath><clipPath id="9c1c738757"><rect x="0" width="122" y="0" height="28"/></clipPath><clipPath id="ba8a53a528"><path d="M 105 10 L 119.921875 10 L 119.921875 27 L 105 27 Z M 105 10 " clip-rule="nonzero"/></clipPath><clipPath id="7a1de8406a"><rect x="0" width="120" y="0" height="28"/></clipPath></defs><g clip-path="url(#a00c6f642c)"><path fill="#ff0000" d="M 968.832031 514.140625 C 968.832031 517.722656 968.746094 521.304688 968.570312 524.878906 C 968.394531 528.457031 968.128906 532.027344 967.777344 535.59375 C 967.425781 539.15625 966.988281 542.710938 966.464844 546.253906 C 965.9375 549.792969 965.324219 553.324219 964.628906 556.835938 C 963.929688 560.347656 963.144531 563.839844 962.273438 567.316406 C 961.402344 570.789062 960.449219 574.238281 959.410156 577.667969 C 958.371094 581.09375 957.246094 584.492188 956.039062 587.867188 C 954.832031 591.238281 953.542969 594.578125 952.175781 597.886719 C 950.804688 601.195312 949.351562 604.46875 947.820312 607.707031 C 946.289062 610.945312 944.679688 614.140625 942.992188 617.300781 C 941.304688 620.460938 939.539062 623.574219 937.699219 626.644531 C 935.855469 629.71875 933.941406 632.742188 931.953125 635.722656 C 929.960938 638.699219 927.898438 641.625 925.765625 644.503906 C 923.632812 647.378906 921.429688 650.203125 919.160156 652.96875 C 916.886719 655.738281 914.546875 658.449219 912.144531 661.101562 C 909.738281 663.757812 907.269531 666.351562 904.738281 668.882812 C 902.203125 671.414062 899.609375 673.882812 896.957031 676.289062 C 894.304688 678.695312 891.59375 681.03125 888.824219 683.304688 C 886.054688 685.578125 883.234375 687.78125 880.355469 689.914062 C 877.480469 692.046875 874.554688 694.109375 871.574219 696.097656 C 868.597656 698.085938 865.574219 700.003906 862.5 701.84375 C 859.429688 703.683594 856.3125 705.449219 853.15625 707.136719 C 849.996094 708.828125 846.796875 710.4375 843.5625 711.96875 C 840.324219 713.5 837.050781 714.949219 833.742188 716.320312 C 830.433594 717.691406 827.09375 718.980469 823.71875 720.1875 C 820.347656 721.390625 816.949219 722.515625 813.519531 723.554688 C 810.09375 724.59375 806.644531 725.550781 803.167969 726.417969 C 799.695312 727.289062 796.203125 728.074219 792.6875 728.773438 C 789.175781 729.472656 785.648438 730.085938 782.105469 730.609375 C 778.5625 731.136719 775.011719 731.574219 771.445312 731.925781 C 767.882812 732.277344 764.3125 732.539062 760.734375 732.714844 C 757.15625 732.890625 753.578125 732.976562 749.996094 732.976562 C 746.414062 732.976562 742.835938 732.890625 739.257812 732.714844 C 735.679688 732.539062 732.109375 732.277344 728.546875 731.925781 C 724.984375 731.574219 721.429688 731.136719 717.886719 730.609375 C 714.34375 730.085938 710.816406 729.472656 707.304688 728.773438 C 703.789062 728.074219 700.296875 727.289062 696.824219 726.417969 C 693.347656 725.550781 689.898438 724.59375 686.472656 723.554688 C 683.042969 722.515625 679.644531 721.390625 676.273438 720.1875 C 672.902344 718.980469 669.558594 717.691406 666.25 716.320312 C 662.941406 714.949219 659.667969 713.5 656.433594 711.96875 C 653.195312 710.4375 649.996094 708.828125 646.835938 707.136719 C 643.679688 705.449219 640.5625 703.683594 637.492188 701.84375 C 634.421875 700.003906 631.394531 698.085938 628.417969 696.097656 C 625.441406 694.109375 622.511719 692.046875 619.636719 689.914062 C 616.757812 687.78125 613.9375 685.578125 611.167969 683.304688 C 608.398438 681.03125 605.6875 678.695312 603.035156 676.289062 C 600.382812 673.882812 597.789062 671.414062 595.257812 668.882812 C 592.722656 666.351562 590.253906 663.757812 587.847656 661.101562 C 585.445312 658.449219 583.105469 655.738281 580.832031 652.96875 C 578.5625 650.203125 576.359375 647.378906 574.226562 644.503906 C 572.09375 641.625 570.03125 638.699219 568.039062 635.722656 C 566.050781 632.742188 564.136719 629.71875 562.292969 626.644531 C 560.453125 623.574219 558.6875 620.460938 557 617.300781 C 555.3125 614.140625 553.703125 610.945312 552.171875 607.707031 C 550.640625 604.46875 549.1875 601.195312 547.816406 597.886719 C 546.449219 594.578125 545.160156 591.238281 543.953125 587.867188 C 542.746094 584.492188 541.621094 581.09375 540.582031 577.667969 C 539.542969 574.238281 538.589844 570.789062 537.71875 567.316406 C 536.847656 563.839844 536.0625 560.347656 535.363281 556.835938 C 534.667969 553.324219 534.054688 549.792969 533.527344 546.253906 C 533.003906 542.710938 532.566406 539.15625 532.214844 535.59375 C 531.863281 532.027344 531.601562 528.457031 531.425781 524.878906 C 531.25 521.304688 531.160156 517.722656 531.160156 514.140625 C 531.160156 510.5625 531.25 506.980469 531.425781 503.40625 C 531.601562 499.828125 531.863281 496.257812 532.214844 492.691406 C 532.566406 489.128906 533.003906 485.574219 533.527344 482.03125 C 534.054688 478.488281 534.667969 474.960938 535.363281 471.449219 C 536.0625 467.9375 536.847656 464.445312 537.71875 460.96875 C 538.589844 457.496094 539.542969 454.042969 540.582031 450.617188 C 541.621094 447.191406 542.746094 443.789062 543.953125 440.417969 C 545.160156 437.046875 546.449219 433.707031 547.816406 430.398438 C 549.1875 427.089844 550.640625 423.816406 552.171875 420.578125 C 553.703125 417.339844 555.3125 414.140625 557 410.984375 C 558.6875 407.824219 560.453125 404.710938 562.292969 401.636719 C 564.136719 398.566406 566.050781 395.542969 568.039062 392.5625 C 570.03125 389.585938 572.09375 386.660156 574.226562 383.78125 C 576.359375 380.90625 578.5625 378.082031 580.832031 375.3125 C 583.105469 372.546875 585.445312 369.835938 587.847656 367.179688 C 590.253906 364.527344 592.722656 361.933594 595.257812 359.402344 C 597.789062 356.871094 600.382812 354.402344 603.035156 351.996094 C 605.6875 349.589844 608.398438 347.25 611.167969 344.980469 C 613.9375 342.707031 616.757812 340.503906 619.636719 338.371094 C 622.511719 336.238281 625.441406 334.175781 628.417969 332.1875 C 631.394531 330.195312 634.421875 328.28125 637.492188 326.441406 C 640.5625 324.597656 643.679688 322.835938 646.835938 321.144531 C 649.996094 319.457031 653.195312 317.847656 656.433594 316.316406 C 659.667969 314.785156 662.941406 313.335938 666.25 311.964844 C 669.558594 310.59375 672.902344 309.304688 676.273438 308.097656 C 679.644531 306.890625 683.042969 305.769531 686.472656 304.730469 C 689.898438 303.691406 693.347656 302.734375 696.824219 301.863281 C 700.296875 300.996094 703.789062 300.210938 707.304688 299.511719 C 710.816406 298.8125 714.34375 298.199219 717.886719 297.675781 C 721.429688 297.148438 724.984375 296.710938 728.546875 296.359375 C 732.109375 296.007812 735.679688 295.746094 739.257812 295.570312 C 742.835938 295.394531 746.414062 295.304688 749.996094 295.304688 C 753.578125 295.304688 757.15625 295.394531 760.734375 295.570312 C 764.3125 295.746094 767.882812 296.007812 771.445312 296.359375 C 775.011719 296.710938 778.5625 297.148438 782.105469 297.675781 C 785.648438 298.199219 789.175781 298.8125 792.6875 299.511719 C 796.203125 300.210938 799.695312 300.996094 803.167969 301.863281 C 806.644531 302.734375 810.09375 303.691406 813.519531 304.730469 C 816.949219 305.769531 820.347656 306.890625 823.71875 308.097656 C 827.09375 309.304688 830.433594 310.59375 833.742188 311.964844 C 837.050781 313.335938 840.324219 314.785156 843.5625 316.316406 C 846.796875 317.847656 849.996094 319.457031 853.15625 321.144531 C 856.3125 322.835938 859.429688 324.597656 862.5 326.441406 C 865.574219 328.28125 868.597656 330.195312 871.574219 332.1875 C 874.554688 334.175781 877.480469 336.238281 880.355469 338.371094 C 883.234375 340.503906 886.054688 342.707031 888.824219 344.980469 C 891.59375 347.25 894.304688 349.589844 896.957031 351.996094 C 899.609375 354.402344 902.203125 356.871094 904.738281 359.402344 C 907.269531 361.933594 909.738281 364.527344 912.144531 367.179688 C 914.546875 369.835938 916.886719 372.546875 919.160156 375.3125 C 921.429688 378.082031 923.632812 380.90625 925.765625 383.78125 C 927.898438 386.660156 929.960938 389.585938 931.953125 392.5625 C 933.941406 395.542969 935.855469 398.566406 937.699219 401.636719 C 939.539062 404.710938 941.304688 407.824219 942.992188 410.984375 C 944.679688 414.140625 946.289062 417.339844 947.820312 420.578125 C 949.351562 423.816406 950.804688 427.089844 952.175781 430.398438 C 953.542969 433.707031 954.832031 437.046875 956.039062 440.417969 C 957.246094 443.789062 958.371094 447.191406 959.410156 450.617188 C 960.449219 454.042969 961.402344 457.496094 962.273438 460.96875 C 963.144531 464.445312 963.929688 467.9375 964.628906 471.449219 C 965.324219 474.960938 965.9375 478.488281 966.464844 482.03125 C 966.988281 485.574219 967.425781 489.128906 967.777344 492.691406 C 968.128906 496.257812 968.394531 499.828125 968.570312 503.40625 C 968.746094 506.980469 968.832031 510.5625 968.832031 514.140625 Z M 968.832031 514.140625 " fill-opacity="1" fill-rule="nonzero"/></g><path fill="#ffffff" d="M 864.742188 443.003906 L 754.851562 367.558594 C 754.136719 367.070312 753.363281 366.695312 752.539062 366.441406 C 751.710938 366.183594 750.863281 366.054688 749.996094 366.054688 C 749.128906 366.054688 748.28125 366.183594 747.457031 366.441406 C 746.628906 366.695312 745.855469 367.070312 745.140625 367.558594 L 635.253906 443.003906 C 634.5 443.523438 633.847656 444.148438 633.292969 444.875 C 632.738281 445.601562 632.3125 446.398438 632.015625 447.261719 C 631.714844 448.125 631.558594 449.015625 631.542969 449.929688 C 631.53125 450.84375 631.65625 451.738281 631.929688 452.609375 C 632.199219 453.484375 632.601562 454.292969 633.128906 455.039062 C 633.660156 455.78125 634.292969 456.425781 635.027344 456.96875 C 635.761719 457.511719 636.566406 457.925781 637.433594 458.214844 C 638.300781 458.5 639.191406 458.644531 640.105469 458.644531 L 859.886719 458.644531 C 860.800781 458.644531 861.691406 458.5 862.558594 458.214844 C 863.425781 457.925781 864.230469 457.511719 864.964844 456.96875 C 865.699219 456.425781 866.332031 455.78125 866.863281 455.039062 C 867.390625 454.292969 867.792969 453.484375 868.0625 452.609375 C 868.335938 451.738281 868.460938 450.84375 868.449219 449.929688 C 868.433594 449.015625 868.277344 448.125 867.976562 447.261719 C 867.679688 446.398438 867.253906 445.601562 866.699219 444.875 C 866.144531 444.148438 865.492188 443.523438 864.742188 443.003906 Z M 864.742188 443.003906 " fill-opacity="1" fill-rule="nonzero"/><path fill="#ffffff" d="M 668.261719 472.238281 L 685.484375 472.238281 C 686.09375 472.238281 686.699219 472.296875 687.296875 472.414062 C 687.894531 472.535156 688.476562 472.710938 689.039062 472.945312 C 689.605469 473.179688 690.140625 473.464844 690.648438 473.804688 C 691.15625 474.144531 691.625 474.527344 692.054688 474.960938 C 692.488281 475.390625 692.871094 475.859375 693.210938 476.367188 C 693.550781 476.875 693.835938 477.410156 694.070312 477.976562 C 694.304688 478.539062 694.480469 479.121094 694.601562 479.71875 C 694.71875 480.316406 694.777344 480.921875 694.777344 481.53125 L 694.777344 562.855469 C 694.777344 563.46875 694.71875 564.070312 694.601562 564.671875 C 694.480469 565.269531 694.304688 565.851562 694.070312 566.414062 C 693.835938 566.976562 693.550781 567.515625 693.210938 568.019531 C 692.871094 568.527344 692.488281 569 692.054688 569.429688 C 691.625 569.863281 691.15625 570.246094 690.648438 570.585938 C 690.140625 570.925781 689.605469 571.210938 689.039062 571.445312 C 688.476562 571.679688 687.894531 571.855469 687.296875 571.972656 C 686.699219 572.09375 686.09375 572.152344 685.484375 572.152344 L 668.261719 572.152344 C 667.648438 572.152344 667.046875 572.09375 666.445312 571.972656 C 665.847656 571.855469 665.265625 571.679688 664.703125 571.445312 C 664.140625 571.210938 663.601562 570.925781 663.09375 570.585938 C 662.589844 570.246094 662.117188 569.863281 661.6875 569.429688 C 661.253906 569 660.871094 568.527344 660.53125 568.019531 C 660.191406 567.515625 659.90625 566.976562 659.671875 566.414062 C 659.4375 565.851562 659.261719 565.269531 659.144531 564.671875 C 659.023438 564.070312 658.964844 563.46875 658.964844 562.855469 L 658.964844 481.53125 C 658.964844 480.921875 659.023438 480.316406 659.144531 479.71875 C 659.261719 479.121094 659.4375 478.539062 659.671875 477.976562 C 659.90625 477.410156 660.191406 476.875 660.53125 476.367188 C 660.871094 475.859375 661.253906 475.390625 661.6875 474.960938 C 662.117188 474.527344 662.589844 474.144531 663.09375 473.804688 C 663.601562 473.464844 664.140625 473.179688 664.703125 472.945312 C 665.265625 472.710938 665.847656 472.535156 666.445312 472.414062 C 667.046875 472.296875 667.648438 472.238281 668.261719 472.238281 Z M 668.261719 472.238281 " fill-opacity="1" fill-rule="nonzero"/><path fill="#ffffff" d="M 745.074219 472.238281 L 762.296875 472.238281 C 762.910156 472.238281 763.511719 472.296875 764.113281 472.414062 C 764.710938 472.535156 765.292969 472.710938 765.855469 472.945312 C 766.417969 473.179688 766.953125 473.464844 767.460938 473.804688 C 767.96875 474.144531 768.441406 474.527344 768.871094 474.960938 C 769.304688 475.390625 769.6875 475.859375 770.027344 476.367188 C 770.367188 476.875 770.652344 477.410156 770.886719 477.976562 C 771.121094 478.539062 771.296875 479.121094 771.414062 479.71875 C 771.535156 480.316406 771.59375 480.921875 771.59375 481.53125 L 771.59375 562.855469 C 771.59375 563.46875 771.535156 564.070312 771.414062 564.671875 C 771.296875 565.269531 771.121094 565.851562 770.886719 566.414062 C 770.652344 566.976562 770.367188 567.515625 770.027344 568.019531 C 769.6875 568.527344 769.304688 569 768.871094 569.429688 C 768.441406 569.863281 767.96875 570.246094 767.460938 570.585938 C 766.953125 570.925781 766.417969 571.210938 765.855469 571.445312 C 765.292969 571.679688 764.710938 571.855469 764.113281 571.972656 C 763.511719 572.09375 762.910156 572.152344 762.296875 572.152344 L 745.074219 572.152344 C 744.464844 572.152344 743.859375 572.09375 743.261719 571.972656 C 742.664062 571.855469 742.082031 571.679688 741.519531 571.445312 C 740.953125 571.210938 740.417969 570.925781 739.910156 570.585938 C 739.402344 570.246094 738.933594 569.863281 738.503906 569.429688 C 738.070312 569 737.683594 568.527344 737.347656 568.019531 C 737.007812 567.515625 736.722656 566.976562 736.488281 566.414062 C 736.253906 565.851562 736.078125 565.269531 735.957031 564.671875 C 735.839844 564.070312 735.78125 563.46875 735.78125 562.855469 L 735.78125 481.53125 C 735.78125 480.921875 735.839844 480.316406 735.957031 479.71875 C 736.078125 479.121094 736.253906 478.539062 736.488281 477.976562 C 736.722656 477.410156 737.007812 476.875 737.347656 476.367188 C 737.683594 475.859375 738.070312 475.390625 738.503906 474.960938 C 738.933594 474.527344 739.402344 474.144531 739.910156 473.804688 C 740.417969 473.464844 740.953125 473.179688 741.519531 472.945312 C 742.082031 472.710938 742.664062 472.535156 743.261719 472.414062 C 743.859375 472.296875 744.464844 472.238281 745.074219 472.238281 Z M 745.074219 472.238281 " fill-opacity="1" fill-rule="nonzero"/><path fill="#ffffff" d="M 814.523438 472.238281 L 831.746094 472.238281 C 832.355469 472.238281 832.960938 472.296875 833.558594 472.414062 C 834.15625 472.535156 834.738281 472.710938 835.304688 472.945312 C 835.867188 473.179688 836.402344 473.464844 836.910156 473.804688 C 837.417969 474.144531 837.886719 474.527344 838.320312 474.960938 C 838.75 475.390625 839.136719 475.859375 839.476562 476.367188 C 839.8125 476.875 840.101562 477.410156 840.332031 477.976562 C 840.566406 478.539062 840.742188 479.121094 840.863281 479.71875 C 840.980469 480.316406 841.042969 480.921875 841.042969 481.53125 L 841.042969 562.855469 C 841.042969 563.46875 840.980469 564.070312 840.863281 564.671875 C 840.742188 565.269531 840.566406 565.851562 840.332031 566.414062 C 840.101562 566.976562 839.8125 567.515625 839.476562 568.019531 C 839.136719 568.527344 838.75 569 838.320312 569.429688 C 837.886719 569.863281 837.417969 570.246094 836.910156 570.585938 C 836.402344 570.925781 835.867188 571.210938 835.304688 571.445312 C 834.738281 571.679688 834.15625 571.855469 833.558594 571.972656 C 832.960938 572.09375 832.355469 572.152344 831.746094 572.152344 L 814.523438 572.152344 C 813.914062 572.152344 813.308594 572.09375 812.710938 571.972656 C 812.109375 571.855469 811.53125 571.679688 810.964844 571.445312 C 810.402344 571.210938 809.867188 570.925781 809.359375 570.585938 C 808.851562 570.246094 808.382812 569.863281 807.949219 569.429688 C 807.519531 569 807.132812 568.527344 806.792969 568.019531 C 806.453125 567.515625 806.167969 566.976562 805.933594 566.414062 C 805.703125 565.851562 805.523438 565.269531 805.40625 564.671875 C 805.285156 564.070312 805.226562 563.46875 805.226562 562.855469 L 805.226562 481.53125 C 805.226562 480.921875 805.285156 480.316406 805.40625 479.71875 C 805.523438 479.121094 805.703125 478.539062 805.933594 477.976562 C 806.167969 477.410156 806.453125 476.875 806.792969 476.367188 C 807.132812 475.859375 807.519531 475.390625 807.949219 474.960938 C 808.382812 474.527344 808.851562 474.144531 809.359375 473.804688 C 809.867188 473.464844 810.402344 473.179688 810.964844 472.945312 C 811.53125 472.710938 812.109375 472.535156 812.710938 472.414062 C 813.308594 472.296875 813.914062 472.238281 814.523438 472.238281 Z M 814.523438 472.238281 " fill-opacity="1" fill-rule="nonzero"/><path fill="#ffffff" d="M 658.378906 585.757812 L 841.601562 585.757812 C 842.523438 585.757812 843.441406 585.847656 844.347656 586.027344 C 845.253906 586.207031 846.136719 586.476562 846.988281 586.828125 C 847.84375 587.183594 848.65625 587.617188 849.425781 588.132812 C 850.195312 588.644531 850.90625 589.230469 851.558594 589.882812 C 852.210938 590.535156 852.796875 591.246094 853.308594 592.015625 C 853.824219 592.785156 854.257812 593.597656 854.613281 594.453125 C 854.964844 595.304688 855.234375 596.1875 855.414062 597.09375 C 855.59375 598 855.683594 598.917969 855.683594 599.839844 L 855.683594 611.53125 C 855.683594 612.457031 855.59375 613.371094 855.414062 614.277344 C 855.234375 615.1875 854.964844 616.066406 854.613281 616.921875 C 854.257812 617.773438 853.824219 618.585938 853.308594 619.355469 C 852.796875 620.125 852.210938 620.835938 851.558594 621.488281 C 850.90625 622.144531 850.195312 622.726562 849.425781 623.242188 C 848.65625 623.753906 847.84375 624.1875 846.988281 624.542969 C 846.136719 624.898438 845.253906 625.164062 844.347656 625.34375 C 843.441406 625.523438 842.523438 625.613281 841.601562 625.613281 L 658.378906 625.613281 C 657.453125 625.613281 656.539062 625.523438 655.632812 625.34375 C 654.722656 625.164062 653.84375 624.898438 652.988281 624.542969 C 652.136719 624.1875 651.324219 623.753906 650.554688 623.242188 C 649.785156 622.726562 649.074219 622.144531 648.421875 621.488281 C 647.765625 620.835938 647.183594 620.125 646.667969 619.355469 C 646.15625 618.585938 645.722656 617.773438 645.367188 616.921875 C 645.011719 616.066406 644.746094 615.1875 644.566406 614.277344 C 644.386719 613.371094 644.296875 612.457031 644.296875 611.53125 L 644.296875 599.839844 C 644.296875 598.917969 644.386719 598 644.566406 597.09375 C 644.746094 596.1875 645.011719 595.304688 645.367188 594.453125 C 645.722656 593.597656 646.15625 592.785156 646.667969 592.015625 C 647.183594 591.246094 647.765625 590.535156 648.421875 589.882812 C 649.074219 589.230469 649.785156 588.644531 650.554688 588.132812 C 651.324219 587.617188 652.136719 587.183594 652.988281 586.828125 C 653.84375 586.476562 654.722656 586.207031 655.632812 586.027344 C 656.539062 585.847656 657.453125 585.757812 658.378906 585.757812 Z M 658.378906 585.757812 " fill-opacity="1" fill-rule="nonzero"/><g clip-path="url(#728acfea9b)"><path fill="#000000" d="M 768.027344 434.269531 C 767.484375 434.269531 766.972656 434.480469 766.320312 434.75 C 765.980469 434.890625 765.59375 435.050781 765.171875 435.191406 C 764.441406 435.421875 763.609375 435.535156 762.632812 435.535156 C 760.59375 435.535156 758.746094 434.492188 757.59375 432.757812 L 763.445312 432.757812 C 764.484375 432.757812 765.359375 431.824219 765.359375 430.722656 C 765.359375 429.621094 764.464844 428.613281 763.445312 428.613281 L 756.34375 428.613281 C 756.335938 428.433594 756.335938 428.246094 756.335938 428.042969 C 756.335938 427.914062 756.339844 427.785156 756.347656 427.660156 L 765.207031 427.660156 C 766.246094 427.660156 767.125 426.726562 767.125 425.625 C 767.125 424.523438 766.246094 423.554688 765.207031 423.554688 L 757.550781 423.554688 C 758.726562 421.722656 760.664062 420.554688 762.628906 420.554688 C 764.335938 420.554688 765.152344 420.945312 765.871094 421.289062 C 766.402344 421.542969 766.902344 421.78125 767.582031 421.78125 C 769.207031 421.78125 770.480469 420.378906 770.480469 418.59375 C 770.480469 417.140625 769.667969 416.03125 768.117188 415.382812 C 766.390625 414.675781 764.738281 414.363281 762.765625 414.363281 C 757.277344 414.363281 752.378906 418.113281 750.675781 423.550781 L 749.875 423.550781 C 748.835938 423.550781 747.992188 424.480469 747.992188 425.625 C 747.992188 426.765625 748.820312 427.65625 749.875 427.65625 L 750.039062 427.65625 L 750.027344 428.019531 C 750.027344 428.027344 750.027344 428.035156 750.027344 428.042969 C 750.027344 428.238281 750.027344 428.425781 750.03125 428.613281 L 749.875 428.613281 C 748.835938 428.613281 747.992188 429.5625 747.992188 430.722656 C 747.992188 431.886719 748.820312 432.757812 749.875 432.757812 L 750.664062 432.757812 C 752.253906 438.351562 756.820312 441.796875 762.695312 441.796875 C 765.246094 441.796875 767.207031 441.179688 768.40625 440.660156 C 769.964844 439.964844 770.820312 438.828125 770.820312 437.457031 C 770.820312 435.609375 769.644531 434.269531 768.023438 434.269531 Z M 767.847656 439.386719 C 766.773438 439.851562 765.007812 440.410156 762.695312 440.410156 C 757.308594 440.410156 753.160156 437.148438 751.871094 431.894531 C 751.796875 431.585938 751.515625 431.367188 751.199219 431.367188 L 749.875 431.367188 C 749.59375 431.367188 749.382812 431.089844 749.382812 430.722656 C 749.382812 430.355469 749.617188 430.003906 749.875 430.003906 L 750.757812 430.003906 C 751.140625 430.003906 751.453125 429.691406 751.453125 429.308594 L 751.453125 429.304688 C 751.453125 429.285156 751.453125 429.269531 751.449219 429.246094 C 751.417969 428.871094 751.417969 428.492188 751.417969 428.050781 L 751.449219 426.984375 C 751.457031 426.792969 751.386719 426.613281 751.253906 426.476562 C 751.125 426.34375 750.945312 426.265625 750.753906 426.265625 L 749.875 426.265625 C 749.59375 426.265625 749.378906 425.988281 749.378906 425.621094 C 749.378906 425.253906 749.605469 424.941406 749.875 424.941406 L 751.195312 424.941406 C 751.511719 424.941406 751.785156 424.730469 751.867188 424.425781 C 753.25 419.316406 757.730469 415.75 762.765625 415.75 C 764.574219 415.75 766.015625 416.023438 767.585938 416.664062 C 768.597656 417.089844 769.09375 417.71875 769.09375 418.589844 C 769.09375 419.617188 768.441406 420.390625 767.582031 420.390625 C 767.214844 420.390625 766.917969 420.246094 766.472656 420.03125 C 765.703125 419.664062 764.652344 419.164062 762.628906 419.164062 C 759.746094 419.164062 757.046875 421.046875 755.75 423.964844 C 755.65625 424.179688 755.675781 424.429688 755.804688 424.625 C 755.933594 424.824219 756.152344 424.941406 756.386719 424.941406 L 765.207031 424.941406 C 765.445312 424.941406 765.734375 425.246094 765.734375 425.625 C 765.734375 426 765.453125 426.269531 765.207031 426.269531 L 755.707031 426.269531 C 755.347656 426.269531 755.050781 426.542969 755.015625 426.898438 L 755.007812 426.972656 C 754.976562 427.328125 754.945312 427.664062 754.945312 428.042969 C 754.945312 428.511719 754.945312 428.957031 755.023438 429.421875 C 755.078125 429.753906 755.367188 430 755.707031 430 L 763.441406 430 C 763.675781 430 763.96875 430.339844 763.96875 430.722656 C 763.96875 431.101562 763.691406 431.367188 763.441406 431.367188 L 756.421875 431.367188 C 756.183594 431.367188 755.964844 431.484375 755.835938 431.683594 C 755.707031 431.882812 755.691406 432.128906 755.785156 432.34375 C 757.054688 435.167969 759.679688 436.921875 762.628906 436.921875 C 763.75 436.921875 764.71875 436.789062 765.597656 436.511719 C 766.078125 436.351562 766.488281 436.183594 766.847656 436.03125 C 767.335938 435.832031 767.757812 435.65625 768.023438 435.65625 C 768.867188 435.65625 769.429688 436.378906 769.429688 437.457031 C 769.429688 438.265625 768.898438 438.917969 767.847656 439.386719 Z M 761.992188 401.386719 C 761.550781 401.386719 761.113281 401.398438 760.679688 401.421875 C 761.261719 400.710938 761.609375 399.804688 761.609375 398.820312 L 761.609375 395.304688 C 761.609375 393.03125 759.757812 391.179688 757.484375 391.179688 L 715.441406 391.179688 C 713.167969 391.179688 711.316406 393.03125 711.316406 395.304688 L 711.316406 398.820312 C 711.316406 401.09375 713.167969 402.941406 715.441406 402.941406 L 718.277344 402.941406 C 717.601562 403.679688 717.191406 404.65625 717.191406 405.730469 L 717.191406 409.242188 C 717.191406 411.515625 719.039062 413.367188 721.316406 413.367188 L 724.90625 413.367188 C 724.234375 414.101562 723.820312 415.078125 723.820312 416.152344 L 723.820312 419.667969 C 723.820312 420.742188 724.234375 421.722656 724.910156 422.457031 L 718.875 422.457031 C 716.601562 422.457031 714.75 424.304688 714.75 426.582031 L 714.75 430.09375 C 714.75 432.367188 716.601562 434.21875 718.875 434.21875 L 721.144531 434.21875 C 720.46875 434.953125 720.058594 435.929688 720.058594 437.003906 L 720.058594 440.515625 C 720.058594 441.601562 720.480469 442.585938 721.164062 443.320312 L 716.800781 443.320312 C 714.523438 443.320312 712.675781 445.171875 712.675781 447.445312 L 712.675781 450.957031 C 712.675781 453.234375 714.523438 455.082031 716.800781 455.082031 L 758.84375 455.082031 C 759.425781 455.082031 759.984375 454.960938 760.507812 454.730469 C 761 454.753906 761.492188 454.769531 761.988281 454.769531 C 776.707031 454.769531 788.679688 442.796875 788.679688 428.082031 C 788.679688 413.363281 776.707031 401.386719 761.992188 401.386719 Z M 712.707031 398.820312 L 712.707031 395.304688 C 712.707031 393.796875 713.933594 392.570312 715.441406 392.570312 L 757.484375 392.570312 C 758.992188 392.570312 760.21875 393.796875 760.21875 395.304688 L 760.21875 398.820312 C 760.21875 400.328125 758.992188 401.554688 757.484375 401.554688 L 715.441406 401.554688 C 713.933594 401.554688 712.707031 400.328125 712.707031 398.820312 Z M 718.578125 409.242188 L 718.578125 405.730469 C 718.578125 404.222656 719.808594 402.992188 721.316406 402.992188 L 752.871094 402.992188 C 751.101562 403.636719 749.421875 404.464844 747.851562 405.453125 L 747.851562 405.21875 C 747.851562 404.835938 747.539062 404.523438 747.15625 404.523438 C 746.773438 404.523438 746.460938 404.835938 746.460938 405.21875 L 746.460938 406.382812 C 745.234375 407.261719 744.089844 408.242188 743.03125 409.3125 L 743.03125 405.21875 C 743.03125 404.835938 742.71875 404.523438 742.335938 404.523438 C 741.953125 404.523438 741.640625 404.835938 741.640625 405.21875 L 741.640625 409.753906 C 741.640625 410.03125 741.800781 410.265625 742.03125 410.378906 C 741.574219 410.894531 741.132812 411.425781 740.71875 411.976562 L 721.316406 411.976562 C 719.808594 411.976562 718.578125 410.75 718.578125 409.242188 Z M 740.042969 443.253906 L 724.183594 443.253906 C 722.675781 443.253906 721.449219 442.023438 721.449219 440.515625 L 721.449219 437.003906 C 721.449219 435.496094 722.675781 434.269531 724.183594 434.269531 L 736.023438 434.269531 C 736.804688 437.535156 738.183594 440.570312 740.042969 443.253906 Z M 735.910156 422.402344 L 727.945312 422.402344 C 726.4375 422.402344 725.210938 421.175781 725.210938 419.667969 L 725.210938 416.152344 C 725.210938 414.644531 726.4375 413.417969 727.945312 413.417969 L 739.699219 413.417969 C 737.917969 416.113281 736.617188 419.148438 735.910156 422.402344 Z M 716.140625 430.09375 L 716.140625 426.582031 C 716.140625 425.070312 717.367188 423.84375 718.875 423.84375 L 735.636719 423.84375 C 735.550781 424.375 735.480469 424.90625 735.429688 425.449219 C 735.335938 425.402344 735.230469 425.375 735.121094 425.375 C 734.738281 425.375 734.425781 425.683594 734.425781 426.066406 L 734.425781 430.605469 C 734.425781 430.988281 734.738281 431.300781 735.121094 431.300781 C 735.253906 431.300781 735.375 431.261719 735.480469 431.199219 C 735.546875 431.746094 735.625 432.289062 735.722656 432.828125 L 718.875 432.828125 C 717.367188 432.828125 716.140625 431.601562 716.140625 430.09375 Z M 716.800781 453.695312 C 715.289062 453.695312 714.0625 452.46875 714.0625 450.957031 L 714.0625 447.445312 C 714.0625 445.9375 715.289062 444.710938 716.800781 444.710938 L 741.132812 444.710938 C 741.558594 445.246094 742.003906 445.761719 742.46875 446.261719 C 742.164062 446.335938 741.9375 446.605469 741.9375 446.933594 L 741.9375 451.472656 C 741.9375 451.855469 742.25 452.167969 742.632812 452.167969 C 743.015625 452.167969 743.328125 451.855469 743.328125 451.472656 L 743.328125 447.140625 C 744.386719 448.179688 745.535156 449.132812 746.757812 449.984375 L 746.757812 451.472656 C 746.757812 451.855469 747.070312 452.167969 747.453125 452.167969 C 747.835938 452.167969 748.148438 451.855469 748.148438 451.472656 L 748.148438 450.894531 C 750.109375 452.085938 752.234375 453.035156 754.484375 453.695312 Z M 761.992188 453.382812 C 748.039062 453.382812 736.6875 442.03125 736.6875 428.082031 C 736.6875 414.128906 748.039062 402.777344 761.992188 402.777344 C 775.941406 402.777344 787.292969 414.128906 787.292969 428.078125 C 787.292969 442.03125 775.941406 453.378906 761.992188 453.378906 Z M 761.992188 405.398438 C 749.484375 405.398438 739.3125 415.574219 739.3125 428.082031 C 739.3125 440.585938 749.484375 450.761719 761.992188 450.761719 C 774.496094 450.761719 784.671875 440.585938 784.671875 428.082031 C 784.671875 415.574219 774.496094 405.398438 761.992188 405.398438 Z M 761.992188 449.371094 C 750.25 449.371094 740.699219 439.820312 740.699219 428.078125 C 740.699219 416.339844 750.25 406.789062 761.992188 406.789062 C 773.730469 406.789062 783.28125 416.339844 783.28125 428.078125 C 783.28125 439.820312 773.730469 449.371094 761.992188 449.371094 Z M 738.507812 446.933594 L 738.507812 451.472656 C 738.507812 451.855469 738.195312 452.167969 737.8125 452.167969 C 737.429688 452.167969 737.117188 451.855469 737.117188 451.472656 L 737.117188 446.933594 C 737.117188 446.550781 737.429688 446.238281 737.8125 446.238281 C 738.195312 446.238281 738.507812 446.550781 738.507812 446.933594 Z M 733.6875 446.933594 L 733.6875 451.472656 C 733.6875 451.855469 733.375 452.167969 732.992188 452.167969 C 732.609375 452.167969 732.296875 451.855469 732.296875 451.472656 L 732.296875 446.933594 C 732.296875 446.550781 732.609375 446.238281 732.992188 446.238281 C 733.375 446.238281 733.6875 446.550781 733.6875 446.933594 Z M 728.867188 446.933594 L 728.867188 451.472656 C 728.867188 451.855469 728.554688 452.167969 728.171875 452.167969 C 727.789062 452.167969 727.476562 451.855469 727.476562 451.472656 L 727.476562 446.933594 C 727.476562 446.550781 727.789062 446.238281 728.171875 446.238281 C 728.554688 446.238281 728.867188 446.550781 728.867188 446.933594 Z M 724.046875 446.933594 L 724.046875 451.472656 C 724.046875 451.855469 723.734375 452.167969 723.351562 452.167969 C 722.96875 452.167969 722.65625 451.855469 722.65625 451.472656 L 722.65625 446.933594 C 722.65625 446.550781 722.96875 446.238281 723.351562 446.238281 C 723.734375 446.238281 724.046875 446.550781 724.046875 446.933594 Z M 719.226562 446.933594 L 719.226562 451.472656 C 719.226562 451.855469 718.914062 452.167969 718.53125 452.167969 C 718.148438 452.167969 717.835938 451.855469 717.835938 451.472656 L 717.835938 446.933594 C 717.835938 446.550781 718.148438 446.238281 718.53125 446.238281 C 718.914062 446.238281 719.226562 446.550781 719.226562 446.933594 Z M 734.871094 441.03125 L 734.871094 436.492188 C 734.871094 436.109375 735.183594 435.796875 735.566406 435.796875 C 735.949219 435.796875 736.261719 436.109375 736.261719 436.492188 L 736.261719 441.03125 C 736.261719 441.414062 735.949219 441.722656 735.566406 441.722656 C 735.183594 441.722656 734.871094 441.414062 734.871094 441.03125 Z M 730.050781 441.03125 L 730.050781 436.492188 C 730.050781 436.109375 730.363281 435.796875 730.746094 435.796875 C 731.128906 435.796875 731.441406 436.109375 731.441406 436.492188 L 731.441406 441.03125 C 731.441406 441.414062 731.128906 441.722656 730.746094 441.722656 C 730.363281 441.722656 730.050781 441.414062 730.050781 441.03125 Z M 725.230469 441.03125 L 725.230469 436.492188 C 725.230469 436.109375 725.542969 435.796875 725.925781 435.796875 C 726.308594 435.796875 726.621094 436.109375 726.621094 436.492188 L 726.621094 441.03125 C 726.621094 441.414062 726.308594 441.722656 725.925781 441.722656 C 725.542969 441.722656 725.230469 441.414062 725.230469 441.03125 Z M 730.996094 426.066406 L 730.996094 430.605469 C 730.996094 430.988281 730.6875 431.300781 730.300781 431.300781 C 729.917969 431.300781 729.609375 430.988281 729.609375 430.605469 L 729.609375 426.066406 C 729.609375 425.683594 729.917969 425.371094 730.300781 425.371094 C 730.6875 425.371094 730.996094 425.683594 730.996094 426.066406 Z M 726.175781 426.066406 L 726.175781 430.605469 C 726.175781 430.988281 725.867188 431.300781 725.480469 431.300781 C 725.097656 431.300781 724.789062 430.988281 724.789062 430.605469 L 724.789062 426.066406 C 724.789062 425.683594 725.097656 425.371094 725.480469 425.371094 C 725.867188 425.371094 726.175781 425.683594 726.175781 426.066406 Z M 721.355469 426.066406 L 721.355469 430.605469 C 721.355469 430.988281 721.046875 431.300781 720.664062 431.300781 C 720.277344 431.300781 719.96875 430.988281 719.96875 430.605469 L 719.96875 426.066406 C 719.96875 425.683594 720.277344 425.371094 720.664062 425.371094 C 721.046875 425.371094 721.355469 425.683594 721.355469 426.066406 Z M 735.199219 415.640625 L 735.199219 420.179688 C 735.199219 420.5625 734.890625 420.875 734.507812 420.875 C 734.121094 420.875 733.8125 420.5625 733.8125 420.179688 L 733.8125 415.640625 C 733.8125 415.257812 734.121094 414.949219 734.507812 414.949219 C 734.890625 414.949219 735.199219 415.257812 735.199219 415.640625 Z M 730.382812 415.640625 L 730.382812 420.179688 C 730.382812 420.5625 730.070312 420.875 729.6875 420.875 C 729.304688 420.875 728.992188 420.5625 728.992188 420.179688 L 728.992188 415.640625 C 728.992188 415.257812 729.304688 414.949219 729.6875 414.949219 C 730.070312 414.949219 730.382812 415.257812 730.382812 415.640625 Z M 738.210938 405.21875 L 738.210938 409.757812 C 738.210938 410.140625 737.898438 410.453125 737.515625 410.453125 C 737.132812 410.453125 736.820312 410.140625 736.820312 409.757812 L 736.820312 405.21875 C 736.820312 404.835938 737.132812 404.523438 737.515625 404.523438 C 737.898438 404.523438 738.210938 404.835938 738.210938 405.21875 Z M 733.390625 405.21875 L 733.390625 409.757812 C 733.390625 410.140625 733.082031 410.453125 732.695312 410.453125 C 732.3125 410.453125 732.003906 410.140625 732.003906 409.757812 L 732.003906 405.21875 C 732.003906 404.835938 732.3125 404.523438 732.695312 404.523438 C 733.082031 404.523438 733.390625 404.835938 733.390625 405.21875 Z M 728.570312 405.21875 L 728.570312 409.757812 C 728.570312 410.140625 728.261719 410.453125 727.875 410.453125 C 727.492188 410.453125 727.183594 410.140625 727.183594 409.757812 L 727.183594 405.21875 C 727.183594 404.835938 727.492188 404.523438 727.875 404.523438 C 728.261719 404.523438 728.570312 404.835938 728.570312 405.21875 Z M 723.75 405.21875 L 723.75 409.757812 C 723.75 410.140625 723.441406 410.453125 723.058594 410.453125 C 722.671875 410.453125 722.363281 410.140625 722.363281 409.757812 L 722.363281 405.21875 C 722.363281 404.835938 722.671875 404.523438 723.058594 404.523438 C 723.441406 404.523438 723.75 404.835938 723.75 405.21875 Z M 756.847656 394.753906 L 756.847656 399.371094 C 756.847656 399.753906 756.535156 400.066406 756.152344 400.066406 C 755.769531 400.066406 755.457031 399.753906 755.457031 399.371094 L 755.457031 394.753906 C 755.457031 394.371094 755.769531 394.058594 756.152344 394.058594 C 756.535156 394.058594 756.847656 394.371094 756.847656 394.753906 Z M 752 394.753906 L 752 399.371094 C 752 399.753906 751.691406 400.066406 751.304688 400.066406 C 750.921875 400.066406 750.613281 399.753906 750.613281 399.371094 L 750.613281 394.753906 C 750.613281 394.371094 750.921875 394.058594 751.304688 394.058594 C 751.691406 394.058594 752 394.371094 752 394.753906 Z M 747.152344 394.753906 L 747.152344 399.371094 C 747.152344 399.753906 746.84375 400.066406 746.460938 400.066406 C 746.074219 400.066406 745.765625 399.753906 745.765625 399.371094 L 745.765625 394.753906 C 745.765625 394.371094 746.074219 394.058594 746.460938 394.058594 C 746.84375 394.058594 747.152344 394.371094 747.152344 394.753906 Z M 742.308594 394.753906 L 742.308594 399.371094 C 742.308594 399.753906 741.996094 400.066406 741.613281 400.066406 C 741.230469 400.066406 740.917969 399.753906 740.917969 399.371094 L 740.917969 394.753906 C 740.917969 394.371094 741.230469 394.058594 741.613281 394.058594 C 741.996094 394.058594 742.308594 394.371094 742.308594 394.753906 Z M 737.460938 394.753906 L 737.460938 399.371094 C 737.460938 399.753906 737.148438 400.066406 736.765625 400.066406 C 736.382812 400.066406 736.070312 399.753906 736.070312 399.371094 L 736.070312 394.753906 C 736.070312 394.371094 736.382812 394.058594 736.765625 394.058594 C 737.148438 394.058594 737.460938 394.371094 737.460938 394.753906 Z M 732.617188 394.753906 L 732.617188 399.371094 C 732.617188 399.753906 732.304688 400.066406 731.921875 400.066406 C 731.539062 400.066406 731.226562 399.753906 731.226562 399.371094 L 731.226562 394.753906 C 731.226562 394.371094 731.539062 394.058594 731.921875 394.058594 C 732.304688 394.058594 732.617188 394.371094 732.617188 394.753906 Z M 727.769531 394.753906 L 727.769531 399.371094 C 727.769531 399.753906 727.457031 400.066406 727.074219 400.066406 C 726.691406 400.066406 726.378906 399.753906 726.378906 399.371094 L 726.378906 394.753906 C 726.378906 394.371094 726.691406 394.058594 727.074219 394.058594 C 727.457031 394.058594 727.769531 394.371094 727.769531 394.753906 Z M 722.921875 394.753906 L 722.921875 399.371094 C 722.921875 399.753906 722.609375 400.066406 722.226562 400.066406 C 721.84375 400.066406 721.53125 399.753906 721.53125 399.371094 L 721.53125 394.753906 C 721.53125 394.371094 721.84375 394.058594 722.226562 394.058594 C 722.609375 394.058594 722.921875 394.371094 722.921875 394.753906 Z M 718.074219 394.753906 L 718.074219 399.371094 C 718.074219 399.753906 717.765625 400.066406 717.382812 400.066406 C 716.996094 400.066406 716.6875 399.753906 716.6875 399.371094 L 716.6875 394.753906 C 716.6875 394.371094 716.996094 394.058594 717.382812 394.058594 C 717.765625 394.058594 718.074219 394.371094 718.074219 394.753906 Z M 718.074219 394.753906 " fill-opacity="1" fill-rule="nonzero"/></g><g transform="matrix(1, 0, 0, 1, 355, 707)"><g clip-path="url(#f1a2e6db29)"><g fill="#000000" fill-opacity="1"><g transform="translate(3.120403, 147.195794)"><g><path d="M 9.1875 -81.625 L 37.796875 -81.625 L 37.796875 0 L 9.1875 0 Z M 23.484375 -90.671875 C 18.265625 -90.671875 14.046875 -92.125 10.828125 -95.03125 C 7.617188 -97.945312 6.015625 -101.5625 6.015625 -105.875 C 6.015625 -110.195312 7.617188 -113.8125 10.828125 -116.71875 C 14.046875 -119.632812 18.265625 -121.09375 23.484375 -121.09375 C 28.710938 -121.09375 32.929688 -119.710938 36.140625 -116.953125 C 39.347656 -114.191406 40.953125 -110.648438 40.953125 -106.328125 C 40.953125 -101.804688 39.347656 -98.066406 36.140625 -95.109375 C 32.929688 -92.148438 28.710938 -90.671875 23.484375 -90.671875 Z M 23.484375 -90.671875 "/></g></g></g><g fill="#000000" fill-opacity="1"><g transform="translate(34.899545, 147.195794)"><g><path d="M 62.359375 -82.984375 C 72.492188 -82.984375 80.648438 -79.96875 86.828125 -73.9375 C 93.003906 -67.914062 96.09375 -58.832031 96.09375 -46.6875 L 96.09375 0 L 67.46875 0 L 67.46875 -42.015625 C 67.46875 -53.160156 63 -58.734375 54.0625 -58.734375 C 49.144531 -58.734375 45.203125 -57.125 42.234375 -53.90625 C 39.273438 -50.695312 37.796875 -45.878906 37.796875 -39.453125 L 37.796875 0 L 9.1875 0 L 9.1875 -81.625 L 36.453125 -81.625 L 36.453125 -72.75 C 39.660156 -76.0625 43.472656 -78.59375 47.890625 -80.34375 C 52.304688 -82.101562 57.128906 -82.984375 62.359375 -82.984375 Z M 62.359375 -82.984375 "/></g></g></g><g fill="#000000" fill-opacity="1"><g transform="translate(124.363108, 147.195794)"><g><path d="M 65.515625 -3.3125 C 63.109375 -1.800781 60.171875 -0.644531 56.703125 0.15625 C 53.242188 0.957031 49.554688 1.359375 45.640625 1.359375 C 34.992188 1.359375 26.804688 -1.25 21.078125 -6.46875 C 15.359375 -11.695312 12.5 -19.484375 12.5 -29.828125 L 12.5 -57.234375 L 0.609375 -57.234375 L 0.609375 -78.625 L 12.5 -78.625 L 12.5 -99.859375 L 41.109375 -99.859375 L 41.109375 -78.625 L 59.796875 -78.625 L 59.796875 -57.234375 L 41.109375 -57.234375 L 41.109375 -30.125 C 41.109375 -27.207031 41.882812 -24.921875 43.4375 -23.265625 C 45 -21.609375 47.085938 -20.78125 49.703125 -20.78125 C 53.015625 -20.78125 55.925781 -21.632812 58.4375 -23.34375 Z M 65.515625 -3.3125 "/></g></g></g><g fill="#000000" fill-opacity="1"><g transform="translate(176.324252, 147.195794)"><g><path d="M 92.625 -40.671875 C 92.625 -40.460938 92.472656 -38.097656 92.171875 -33.578125 L 32.828125 -33.578125 C 34.035156 -29.367188 36.367188 -26.132812 39.828125 -23.875 C 43.296875 -21.613281 47.640625 -20.484375 52.859375 -20.484375 C 56.773438 -20.484375 60.164062 -21.035156 63.03125 -22.140625 C 65.894531 -23.242188 68.78125 -25.050781 71.6875 -27.5625 L 86.75 -11.890625 C 78.820312 -3.054688 67.222656 1.359375 51.953125 1.359375 C 42.421875 1.359375 34.039062 -0.445312 26.8125 -4.0625 C 19.582031 -7.675781 13.984375 -12.695312 10.015625 -19.125 C 6.046875 -25.550781 4.0625 -32.832031 4.0625 -40.96875 C 4.0625 -49 5.992188 -56.203125 9.859375 -62.578125 C 13.722656 -68.953125 19.066406 -73.945312 25.890625 -77.5625 C 32.722656 -81.175781 40.410156 -82.984375 48.953125 -82.984375 C 57.078125 -82.984375 64.453125 -81.300781 71.078125 -77.9375 C 77.710938 -74.570312 82.960938 -69.703125 86.828125 -63.328125 C 90.691406 -56.953125 92.625 -49.398438 92.625 -40.671875 Z M 49.09375 -62.65625 C 44.675781 -62.65625 40.984375 -61.398438 38.015625 -58.890625 C 35.054688 -56.378906 33.175781 -52.960938 32.375 -48.640625 L 65.8125 -48.640625 C 65.007812 -52.960938 63.125 -56.378906 60.15625 -58.890625 C 57.195312 -61.398438 53.507812 -62.65625 49.09375 -62.65625 Z M 49.09375 -62.65625 "/></g></g></g><g fill="#000000" fill-opacity="1"><g transform="translate(257.654757, 147.195794)"><g><path d="M 9.1875 -111.75 L 37.796875 -111.75 L 37.796875 0 L 9.1875 0 Z M 9.1875 -111.75 "/></g></g></g><g fill="#000000" fill-opacity="1"><g transform="translate(289.433898, 147.195794)"><g><path d="M 9.1875 -111.75 L 37.796875 -111.75 L 37.796875 0 L 9.1875 0 Z M 9.1875 -111.75 "/></g></g></g><g fill="#000000" fill-opacity="1"><g transform="translate(321.21304, 147.195794)"><g><path d="M 9.1875 -81.625 L 37.796875 -81.625 L 37.796875 0 L 9.1875 0 Z M 23.484375 -90.671875 C 18.265625 -90.671875 14.046875 -92.125 10.828125 -95.03125 C 7.617188 -97.945312 6.015625 -101.5625 6.015625 -105.875 C 6.015625 -110.195312 7.617188 -113.8125 10.828125 -116.71875 C 14.046875 -119.632812 18.265625 -121.09375 23.484375 -121.09375 C 28.710938 -121.09375 32.929688 -119.710938 36.140625 -116.953125 C 39.347656 -114.191406 40.953125 -110.648438 40.953125 -106.328125 C 40.953125 -101.804688 39.347656 -98.066406 36.140625 -95.109375 C 32.929688 -92.148438 28.710938 -90.671875 23.484375 -90.671875 Z M 23.484375 -90.671875 "/></g></g></g><g fill="#000000" fill-opacity="1"><g transform="translate(352.992181, 147.195794)"><g><path d="M 97 -81.625 L 97 -14.90625 C 97 0.246094 92.878906 11.617188 84.640625 19.203125 C 76.410156 26.785156 64.5625 30.578125 49.09375 30.578125 C 41.0625 30.578125 33.53125 29.671875 26.5 27.859375 C 19.476562 26.054688 13.503906 23.394531 8.578125 19.875 L 18.984375 -0.15625 C 22.296875 2.5625 26.484375 4.695312 31.546875 6.25 C 36.617188 7.800781 41.613281 8.578125 46.53125 8.578125 C 54.0625 8.578125 59.582031 6.921875 63.09375 3.609375 C 66.613281 0.296875 68.375 -4.617188 68.375 -11.140625 L 68.375 -13.859375 C 62.851562 -7.429688 54.769531 -4.21875 44.125 -4.21875 C 36.894531 -4.21875 30.21875 -5.847656 24.09375 -9.109375 C 17.96875 -12.367188 13.097656 -16.984375 9.484375 -22.953125 C 5.867188 -28.929688 4.0625 -35.835938 4.0625 -43.671875 C 4.0625 -51.410156 5.867188 -58.265625 9.484375 -64.234375 C 13.097656 -70.210938 17.96875 -74.832031 24.09375 -78.09375 C 30.21875 -81.351562 36.894531 -82.984375 44.125 -82.984375 C 55.769531 -82.984375 64.304688 -79.21875 69.734375 -71.6875 L 69.734375 -81.625 Z M 50.90625 -26.953125 C 56.03125 -26.953125 60.269531 -28.507812 63.625 -31.625 C 66.988281 -34.738281 68.671875 -38.753906 68.671875 -43.671875 C 68.671875 -48.597656 67.015625 -52.59375 63.703125 -55.65625 C 60.390625 -58.71875 56.125 -60.25 50.90625 -60.25 C 45.6875 -60.25 41.394531 -58.71875 38.03125 -55.65625 C 34.664062 -52.59375 32.984375 -48.597656 32.984375 -43.671875 C 32.984375 -38.753906 34.6875 -34.738281 38.09375 -31.625 C 41.507812 -28.507812 45.78125 -26.953125 50.90625 -26.953125 Z M 50.90625 -26.953125 "/></g></g></g><g fill="#000000" fill-opacity="1"><g transform="translate(443.811272, 147.195794)"><g><path d="M 92.625 -40.671875 C 92.625 -40.460938 92.472656 -38.097656 92.171875 -33.578125 L 32.828125 -33.578125 C 34.035156 -29.367188 36.367188 -26.132812 39.828125 -23.875 C 43.296875 -21.613281 47.640625 -20.484375 52.859375 -20.484375 C 56.773438 -20.484375 60.164062 -21.035156 63.03125 -22.140625 C 65.894531 -23.242188 68.78125 -25.050781 71.6875 -27.5625 L 86.75 -11.890625 C 78.820312 -3.054688 67.222656 1.359375 51.953125 1.359375 C 42.421875 1.359375 34.039062 -0.445312 26.8125 -4.0625 C 19.582031 -7.675781 13.984375 -12.695312 10.015625 -19.125 C 6.046875 -25.550781 4.0625 -32.832031 4.0625 -40.96875 C 4.0625 -49 5.992188 -56.203125 9.859375 -62.578125 C 13.722656 -68.953125 19.066406 -73.945312 25.890625 -77.5625 C 32.722656 -81.175781 40.410156 -82.984375 48.953125 -82.984375 C 57.078125 -82.984375 64.453125 -81.300781 71.078125 -77.9375 C 77.710938 -74.570312 82.960938 -69.703125 86.828125 -63.328125 C 90.691406 -56.953125 92.625 -49.398438 92.625 -40.671875 Z M 49.09375 -62.65625 C 44.675781 -62.65625 40.984375 -61.398438 38.015625 -58.890625 C 35.054688 -56.378906 33.175781 -52.960938 32.375 -48.640625 L 65.8125 -48.640625 C 65.007812 -52.960938 63.125 -56.378906 60.15625 -58.890625 C 57.195312 -61.398438 53.507812 -62.65625 49.09375 -62.65625 Z M 49.09375 -62.65625 "/></g></g></g><g fill="#000000" fill-opacity="1"><g transform="translate(525.141777, 147.195794)"><g><path d="M 62.359375 -82.984375 C 72.492188 -82.984375 80.648438 -79.96875 86.828125 -73.9375 C 93.003906 -67.914062 96.09375 -58.832031 96.09375 -46.6875 L 96.09375 0 L 67.46875 0 L 67.46875 -42.015625 C 67.46875 -53.160156 63 -58.734375 54.0625 -58.734375 C 49.144531 -58.734375 45.203125 -57.125 42.234375 -53.90625 C 39.273438 -50.695312 37.796875 -45.878906 37.796875 -39.453125 L 37.796875 0 L 9.1875 0 L 9.1875 -81.625 L 36.453125 -81.625 L 36.453125 -72.75 C 39.660156 -76.0625 43.472656 -78.59375 47.890625 -80.34375 C 52.304688 -82.101562 57.128906 -82.984375 62.359375 -82.984375 Z M 62.359375 -82.984375 "/></g></g></g><g fill="#000000" fill-opacity="1"><g transform="translate(614.605341, 147.195794)"><g><path d="M 50.90625 1.359375 C 41.863281 1.359375 33.78125 -0.445312 26.65625 -4.0625 C 19.53125 -7.675781 13.984375 -12.695312 10.015625 -19.125 C 6.046875 -25.550781 4.0625 -32.832031 4.0625 -40.96875 C 4.0625 -49.101562 6.046875 -56.359375 10.015625 -62.734375 C 13.984375 -69.109375 19.53125 -74.078125 26.65625 -77.640625 C 33.78125 -81.203125 41.863281 -82.984375 50.90625 -82.984375 C 60.144531 -82.984375 68.125 -81 74.84375 -77.03125 C 81.570312 -73.070312 86.34375 -67.578125 89.15625 -60.546875 L 67.015625 -49.25 C 63.304688 -56.582031 57.882812 -60.25 50.75 -60.25 C 45.632812 -60.25 41.394531 -58.539062 38.03125 -55.125 C 34.664062 -51.707031 32.984375 -46.988281 32.984375 -40.96875 C 32.984375 -34.84375 34.664062 -30.046875 38.03125 -26.578125 C 41.394531 -23.117188 45.632812 -21.390625 50.75 -21.390625 C 57.882812 -21.390625 63.304688 -25.050781 67.015625 -32.375 L 89.15625 -21.078125 C 86.34375 -14.054688 81.570312 -8.5625 74.84375 -4.59375 C 68.125 -0.625 60.144531 1.359375 50.90625 1.359375 Z M 50.90625 1.359375 "/></g></g></g><g fill="#000000" fill-opacity="1"><g transform="translate(690.061986, 147.195794)"><g><path d="M 92.625 -40.671875 C 92.625 -40.460938 92.472656 -38.097656 92.171875 -33.578125 L 32.828125 -33.578125 C 34.035156 -29.367188 36.367188 -26.132812 39.828125 -23.875 C 43.296875 -21.613281 47.640625 -20.484375 52.859375 -20.484375 C 56.773438 -20.484375 60.164062 -21.035156 63.03125 -22.140625 C 65.894531 -23.242188 68.78125 -25.050781 71.6875 -27.5625 L 86.75 -11.890625 C 78.820312 -3.054688 67.222656 1.359375 51.953125 1.359375 C 42.421875 1.359375 34.039062 -0.445312 26.8125 -4.0625 C 19.582031 -7.675781 13.984375 -12.695312 10.015625 -19.125 C 6.046875 -25.550781 4.0625 -32.832031 4.0625 -40.96875 C 4.0625 -49 5.992188 -56.203125 9.859375 -62.578125 C 13.722656 -68.953125 19.066406 -73.945312 25.890625 -77.5625 C 32.722656 -81.175781 40.410156 -82.984375 48.953125 -82.984375 C 57.078125 -82.984375 64.453125 -81.300781 71.078125 -77.9375 C 77.710938 -74.570312 82.960938 -69.703125 86.828125 -63.328125 C 90.691406 -56.953125 92.625 -49.398438 92.625 -40.671875 Z M 49.09375 -62.65625 C 44.675781 -62.65625 40.984375 -61.398438 38.015625 -58.890625 C 35.054688 -56.378906 33.175781 -52.960938 32.375 -48.640625 L 65.8125 -48.640625 C 65.007812 -52.960938 63.125 -56.378906 60.15625 -58.890625 C 57.195312 -61.398438 53.507812 -62.65625 49.09375 -62.65625 Z M 49.09375 -62.65625 "/></g></g></g></g></g><g transform="matrix(1, 0, 0, 1, 546, 887)"><g clip-path="url(#1688a4f139)"><g fill="#ff0000" fill-opacity="1"><g transform="translate(1.008058, 50.766078)"><g><path d="M 10.40625 -35.21875 L 10.40625 -19.984375 L 30.453125 -19.984375 L 30.453125 -16.453125 L 10.40625 -16.453125 L 10.40625 0 L 6.3125 0 L 6.3125 -38.765625 L 32.890625 -38.765625 L 32.890625 -35.21875 Z M 10.40625 -35.21875 "/></g></g></g><g fill="#ff0000" fill-opacity="1"><g transform="translate(51.236255, 50.766078)"><g><path d="M 6.3125 -38.765625 L 10.40625 -38.765625 L 10.40625 0 L 6.3125 0 Z M 6.3125 -38.765625 "/></g></g></g><g fill="#ff0000" fill-opacity="1"><g transform="translate(83.136386, 50.766078)"><g><path d="M 38.703125 -38.765625 L 38.703125 0 L 35.328125 0 L 10.40625 -31.453125 L 10.40625 0 L 6.3125 0 L 6.3125 -38.765625 L 9.6875 -38.765625 L 34.671875 -7.3125 L 34.671875 -38.765625 Z M 38.703125 -38.765625 "/></g></g></g><g fill="#ff0000" fill-opacity="1"><g transform="translate(143.331489, 50.766078)"><g><path d="M 30.625 -10.359375 L 9.03125 -10.359375 L 4.375 0 L 0.109375 0 L 17.828125 -38.765625 L 21.875 -38.765625 L 39.59375 0 L 35.28125 0 Z M 29.125 -13.671875 L 19.828125 -34.5 L 10.515625 -13.671875 Z M 29.125 -13.671875 "/></g></g></g><g fill="#ff0000" fill-opacity="1"><g transform="translate(198.210896, 50.766078)"><g><path d="M 38.703125 -38.765625 L 38.703125 0 L 35.328125 0 L 10.40625 -31.453125 L 10.40625 0 L 6.3125 0 L 6.3125 -38.765625 L 9.6875 -38.765625 L 34.671875 -7.3125 L 34.671875 -38.765625 Z M 38.703125 -38.765625 "/></g></g></g><g fill="#ff0000" fill-opacity="1"><g transform="translate(258.405998, 50.766078)"><g><path d="M 34.28125 -3.546875 L 34.28125 0 L 2.484375 0 L 2.484375 -2.828125 L 28.1875 -35.21875 L 2.875 -35.21875 L 2.875 -38.765625 L 33.609375 -38.765625 L 33.609375 -35.9375 L 7.96875 -3.546875 Z M 34.28125 -3.546875 "/></g></g></g><g fill="#ff0000" fill-opacity="1"><g transform="translate(309.63086, 50.766078)"><g><path d="M 33.71875 -3.546875 L 33.71875 0 L 6.3125 0 L 6.3125 -38.765625 L 32.890625 -38.765625 L 32.890625 -35.21875 L 10.40625 -35.21875 L 10.40625 -21.4375 L 30.453125 -21.4375 L 30.453125 -17.9375 L 10.40625 -17.9375 L 10.40625 -3.546875 Z M 33.71875 -3.546875 "/></g></g></g><g fill="#ff0000" fill-opacity="1"><g transform="translate(361.85245, 50.766078)"><g><path d="M 38.703125 -38.765625 L 38.703125 0 L 35.328125 0 L 10.40625 -31.453125 L 10.40625 0 L 6.3125 0 L 6.3125 -38.765625 L 9.6875 -38.765625 L 34.671875 -7.3125 L 34.671875 -38.765625 Z M 38.703125 -38.765625 "/></g></g></g></g></g><g transform="matrix(1, 0, 0, 1, 740, 952)"><g clip-path="url(#9c1c738757)"><g fill="#000000" fill-opacity="1"><g transform="translate(1.073747, 21.841464)"><g><path d="M 5.921875 -12.078125 L 5.921875 -8.6875 L 12.75 -8.6875 L 12.75 -5.296875 L 5.921875 -5.296875 L 5.921875 0 L 1.546875 0 L 1.546875 -15.46875 L 13.671875 -15.46875 L 13.671875 -12.078125 Z M 5.921875 -12.078125 "/></g></g></g><g fill="#000000" fill-opacity="1"><g transform="translate(12.999744, 21.841464)"><g><path d="M 1.34375 -16.390625 L 5.546875 -16.390625 L 5.546875 0 L 1.34375 0 Z M 1.34375 -16.390625 "/></g></g></g><g fill="#000000" fill-opacity="1"><g transform="translate(17.659607, 21.841464)"><g><path d="M 7.359375 0.203125 C 6.078125 0.203125 4.921875 -0.0625 3.890625 -0.59375 C 2.859375 -1.125 2.050781 -1.859375 1.46875 -2.796875 C 0.882812 -3.742188 0.59375 -4.816406 0.59375 -6.015625 C 0.59375 -7.191406 0.882812 -8.25 1.46875 -9.1875 C 2.050781 -10.132812 2.851562 -10.867188 3.875 -11.390625 C 4.894531 -11.910156 6.054688 -12.171875 7.359375 -12.171875 C 8.648438 -12.171875 9.8125 -11.910156 10.84375 -11.390625 C 11.875 -10.867188 12.675781 -10.140625 13.25 -9.203125 C 13.832031 -8.265625 14.125 -7.203125 14.125 -6.015625 C 14.125 -4.816406 13.832031 -3.742188 13.25 -2.796875 C 12.675781 -1.859375 11.875 -1.125 10.84375 -0.59375 C 9.8125 -0.0625 8.648438 0.203125 7.359375 0.203125 Z M 7.359375 -3.140625 C 8.097656 -3.140625 8.703125 -3.390625 9.171875 -3.890625 C 9.640625 -4.398438 9.875 -5.109375 9.875 -6.015625 C 9.875 -6.890625 9.640625 -7.578125 9.171875 -8.078125 C 8.703125 -8.585938 8.097656 -8.84375 7.359375 -8.84375 C 6.617188 -8.84375 6.015625 -8.585938 5.546875 -8.078125 C 5.078125 -7.578125 4.84375 -6.890625 4.84375 -6.015625 C 4.84375 -5.109375 5.078125 -4.398438 5.546875 -3.890625 C 6.015625 -3.390625 6.617188 -3.140625 7.359375 -3.140625 Z M 7.359375 -3.140625 "/></g></g></g><g fill="#000000" fill-opacity="1"><g transform="translate(29.784364, 21.841464)"><g><path d="M 21.1875 -11.96875 L 16.921875 0 L 12.859375 0 L 10.609375 -6.515625 L 8.265625 0 L 4.203125 0 L -0.0625 -11.96875 L 3.90625 -11.96875 L 6.359375 -4.734375 L 8.90625 -11.96875 L 12.484375 -11.96875 L 14.953125 -4.65625 L 17.5 -11.96875 Z M 21.1875 -11.96875 "/></g></g></g><g fill="#000000" fill-opacity="1"><g transform="translate(48.601035, 21.841464)"><g><path d="M 11.90625 -8.0625 L 15.78125 -8.0625 L 15.78125 -1.65625 C 14.894531 -1.019531 13.875 -0.53125 12.71875 -0.1875 C 11.570312 0.144531 10.425781 0.3125 9.28125 0.3125 C 7.65625 0.3125 6.191406 -0.03125 4.890625 -0.71875 C 3.597656 -1.40625 2.582031 -2.359375 1.84375 -3.578125 C 1.113281 -4.796875 0.75 -6.179688 0.75 -7.734375 C 0.75 -9.273438 1.113281 -10.65625 1.84375 -11.875 C 2.582031 -13.101562 3.609375 -14.0625 4.921875 -14.75 C 6.234375 -15.4375 7.71875 -15.78125 9.375 -15.78125 C 10.8125 -15.78125 12.101562 -15.535156 13.25 -15.046875 C 14.40625 -14.554688 15.363281 -13.859375 16.125 -12.953125 L 13.34375 -10.421875 C 12.300781 -11.578125 11.050781 -12.15625 9.59375 -12.15625 C 8.257812 -12.15625 7.1875 -11.753906 6.375 -10.953125 C 5.570312 -10.148438 5.171875 -9.078125 5.171875 -7.734375 C 5.171875 -6.878906 5.351562 -6.113281 5.71875 -5.4375 C 6.09375 -4.769531 6.609375 -4.25 7.265625 -3.875 C 7.929688 -3.5 8.691406 -3.3125 9.546875 -3.3125 C 10.378906 -3.3125 11.164062 -3.484375 11.90625 -3.828125 Z M 11.90625 -8.0625 "/></g></g></g><g fill="#000000" fill-opacity="1"><g transform="translate(63.353977, 21.841464)"><g><path d="M 6.453125 -12.171875 C 8.441406 -12.171875 9.957031 -11.71875 11 -10.8125 C 12.050781 -9.90625 12.578125 -8.519531 12.578125 -6.65625 L 12.578125 0 L 8.65625 0 L 8.65625 -1.546875 C 8.050781 -0.378906 6.875 0.203125 5.125 0.203125 C 4.195312 0.203125 3.394531 0.0390625 2.71875 -0.28125 C 2.039062 -0.601562 1.523438 -1.039062 1.171875 -1.59375 C 0.828125 -2.15625 0.65625 -2.785156 0.65625 -3.484375 C 0.65625 -4.617188 1.085938 -5.5 1.953125 -6.125 C 2.828125 -6.75 4.171875 -7.0625 5.984375 -7.0625 L 8.375 -7.0625 C 8.300781 -8.332031 7.453125 -8.96875 5.828125 -8.96875 C 5.253906 -8.96875 4.671875 -8.875 4.078125 -8.6875 C 3.492188 -8.507812 2.992188 -8.257812 2.578125 -7.9375 L 1.171875 -10.78125 C 1.835938 -11.21875 2.644531 -11.554688 3.59375 -11.796875 C 4.539062 -12.046875 5.492188 -12.171875 6.453125 -12.171875 Z M 6.296875 -2.453125 C 6.785156 -2.453125 7.210938 -2.566406 7.578125 -2.796875 C 7.941406 -3.035156 8.207031 -3.382812 8.375 -3.84375 L 8.375 -4.875 L 6.5625 -4.875 C 5.34375 -4.875 4.734375 -4.472656 4.734375 -3.671875 C 4.734375 -3.296875 4.867188 -3 5.140625 -2.78125 C 5.421875 -2.5625 5.804688 -2.453125 6.296875 -2.453125 Z M 6.296875 -2.453125 "/></g></g></g><g fill="#000000" fill-opacity="1"><g transform="translate(74.970778, 21.841464)"><g><path d="M 9.609375 -0.484375 C 9.253906 -0.265625 8.820312 -0.0976562 8.3125 0.015625 C 7.8125 0.140625 7.269531 0.203125 6.6875 0.203125 C 5.132812 0.203125 3.9375 -0.175781 3.09375 -0.9375 C 2.25 -1.707031 1.828125 -2.851562 1.828125 -4.375 L 1.828125 -8.390625 L 0.09375 -8.390625 L 0.09375 -11.53125 L 1.828125 -11.53125 L 1.828125 -14.640625 L 6.03125 -14.640625 L 6.03125 -11.53125 L 8.765625 -11.53125 L 8.765625 -8.390625 L 6.03125 -8.390625 L 6.03125 -4.421875 C 6.03125 -3.992188 6.144531 -3.65625 6.375 -3.40625 C 6.601562 -3.164062 6.910156 -3.046875 7.296875 -3.046875 C 7.773438 -3.046875 8.203125 -3.171875 8.578125 -3.421875 Z M 9.609375 -0.484375 "/></g></g></g><g fill="#000000" fill-opacity="1"><g transform="translate(82.236719, 21.841464)"><g><path d="M 13.59375 -5.96875 C 13.59375 -5.9375 13.566406 -5.585938 13.515625 -4.921875 L 4.8125 -4.921875 C 4.988281 -4.304688 5.332031 -3.832031 5.84375 -3.5 C 6.351562 -3.164062 6.988281 -3 7.75 -3 C 8.320312 -3 8.816406 -3.078125 9.234375 -3.234375 C 9.660156 -3.398438 10.085938 -3.671875 10.515625 -4.046875 L 12.71875 -1.75 C 11.5625 -0.445312 9.863281 0.203125 7.625 0.203125 C 6.226562 0.203125 5 -0.0625 3.9375 -0.59375 C 2.875 -1.125 2.050781 -1.859375 1.46875 -2.796875 C 0.882812 -3.742188 0.59375 -4.816406 0.59375 -6.015625 C 0.59375 -7.191406 0.875 -8.242188 1.4375 -9.171875 C 2.007812 -10.109375 2.796875 -10.84375 3.796875 -11.375 C 4.796875 -11.90625 5.925781 -12.171875 7.1875 -12.171875 C 8.375 -12.171875 9.453125 -11.921875 10.421875 -11.421875 C 11.398438 -10.929688 12.171875 -10.21875 12.734375 -9.28125 C 13.304688 -8.351562 13.59375 -7.25 13.59375 -5.96875 Z M 7.203125 -9.1875 C 6.554688 -9.1875 6.015625 -9.003906 5.578125 -8.640625 C 5.140625 -8.273438 4.863281 -7.773438 4.75 -7.140625 L 9.65625 -7.140625 C 9.539062 -7.773438 9.265625 -8.273438 8.828125 -8.640625 C 8.390625 -9.003906 7.847656 -9.1875 7.203125 -9.1875 Z M 7.203125 -9.1875 "/></g></g></g><g fill="#000000" fill-opacity="1"><g transform="translate(94.383573, 21.841464)"><g><path d="M 1.0625 -7.90625 L 7.515625 -7.90625 L 7.515625 -4.6875 L 1.0625 -4.6875 Z M 1.0625 -7.90625 "/></g></g></g><g fill="#000000" fill-opacity="1"><g transform="translate(100.103523, 21.841464)"><g><path d="M 11.90625 -3 L 5.375 -3 L 4.15625 0 L -0.3125 0 L 6.515625 -15.46875 L 10.828125 -15.46875 L 17.671875 0 L 13.125 0 Z M 10.625 -6.234375 L 8.640625 -11.171875 L 6.65625 -6.234375 Z M 10.625 -6.234375 "/></g></g></g><g clip-path="url(#b39fb176d3)"><g fill="#000000" fill-opacity="1"><g transform="translate(115.209833, 21.841464)"><g><path d="M 1.546875 -15.46875 L 5.921875 -15.46875 L 5.921875 0 L 1.546875 0 Z M 1.546875 -15.46875 "/></g></g></g></g></g></g><g transform="matrix(1, 0, 0, 1, 620, 952)"><g clip-path="url(#7a1de8406a)"><g fill="#000000" fill-opacity="1"><g transform="translate(0.551106, 22.001119)"><g><path d="M 8.875 -12.171875 C 9.96875 -12.171875 10.957031 -11.914062 11.84375 -11.40625 C 12.738281 -10.90625 13.445312 -10.1875 13.96875 -9.25 C 14.5 -8.3125 14.765625 -7.222656 14.765625 -5.984375 C 14.765625 -4.742188 14.5 -3.65625 13.96875 -2.71875 C 13.445312 -1.789062 12.738281 -1.070312 11.84375 -0.5625 C 10.957031 -0.0507812 9.96875 0.203125 8.875 0.203125 C 7.476562 0.203125 6.367188 -0.21875 5.546875 -1.0625 L 5.546875 4.28125 L 1.34375 4.28125 L 1.34375 -11.96875 L 5.34375 -11.96875 L 5.34375 -10.78125 C 6.125 -11.707031 7.300781 -12.171875 8.875 -12.171875 Z M 8 -3.140625 C 8.738281 -3.140625 9.34375 -3.390625 9.8125 -3.890625 C 10.28125 -4.398438 10.515625 -5.097656 10.515625 -5.984375 C 10.515625 -6.867188 10.28125 -7.566406 9.8125 -8.078125 C 9.34375 -8.585938 8.738281 -8.84375 8 -8.84375 C 7.257812 -8.84375 6.65625 -8.585938 6.1875 -8.078125 C 5.71875 -7.566406 5.484375 -6.867188 5.484375 -5.984375 C 5.484375 -5.097656 5.71875 -4.398438 6.1875 -3.890625 C 6.65625 -3.390625 7.257812 -3.140625 8 -3.140625 Z M 8 -3.140625 "/></g></g></g><g fill="#000000" fill-opacity="1"><g transform="translate(13.648186, 22.001119)"><g><path d="M 7.359375 0.203125 C 6.078125 0.203125 4.921875 -0.0625 3.890625 -0.59375 C 2.859375 -1.125 2.050781 -1.859375 1.46875 -2.796875 C 0.882812 -3.742188 0.59375 -4.816406 0.59375 -6.015625 C 0.59375 -7.191406 0.882812 -8.25 1.46875 -9.1875 C 2.050781 -10.132812 2.851562 -10.867188 3.875 -11.390625 C 4.894531 -11.910156 6.054688 -12.171875 7.359375 -12.171875 C 8.648438 -12.171875 9.8125 -11.910156 10.84375 -11.390625 C 11.875 -10.867188 12.675781 -10.140625 13.25 -9.203125 C 13.832031 -8.265625 14.125 -7.203125 14.125 -6.015625 C 14.125 -4.816406 13.832031 -3.742188 13.25 -2.796875 C 12.675781 -1.859375 11.875 -1.125 10.84375 -0.59375 C 9.8125 -0.0625 8.648438 0.203125 7.359375 0.203125 Z M 7.359375 -3.140625 C 8.097656 -3.140625 8.703125 -3.390625 9.171875 -3.890625 C 9.640625 -4.398438 9.875 -5.109375 9.875 -6.015625 C 9.875 -6.890625 9.640625 -7.578125 9.171875 -8.078125 C 8.703125 -8.585938 8.097656 -8.84375 7.359375 -8.84375 C 6.617188 -8.84375 6.015625 -8.585938 5.546875 -8.078125 C 5.078125 -7.578125 4.84375 -6.890625 4.84375 -6.015625 C 4.84375 -5.109375 5.078125 -4.398438 5.546875 -3.890625 C 6.015625 -3.390625 6.617188 -3.140625 7.359375 -3.140625 Z M 7.359375 -3.140625 "/></g></g></g><g fill="#000000" fill-opacity="1"><g transform="translate(25.773464, 22.001119)"><g><path d="M 21.1875 -11.96875 L 16.921875 0 L 12.859375 0 L 10.609375 -6.515625 L 8.265625 0 L 4.203125 0 L -0.0625 -11.96875 L 3.90625 -11.96875 L 6.359375 -4.734375 L 8.90625 -11.96875 L 12.484375 -11.96875 L 14.953125 -4.65625 L 17.5 -11.96875 Z M 21.1875 -11.96875 "/></g></g></g><g fill="#000000" fill-opacity="1"><g transform="translate(44.303774, 22.001119)"><g><path d="M 13.59375 -5.96875 C 13.59375 -5.9375 13.566406 -5.585938 13.515625 -4.921875 L 4.8125 -4.921875 C 4.988281 -4.304688 5.332031 -3.832031 5.84375 -3.5 C 6.351562 -3.164062 6.988281 -3 7.75 -3 C 8.320312 -3 8.816406 -3.078125 9.234375 -3.234375 C 9.660156 -3.398438 10.085938 -3.671875 10.515625 -4.046875 L 12.71875 -1.75 C 11.5625 -0.445312 9.863281 0.203125 7.625 0.203125 C 6.226562 0.203125 5 -0.0625 3.9375 -0.59375 C 2.875 -1.125 2.050781 -1.859375 1.46875 -2.796875 C 0.882812 -3.742188 0.59375 -4.816406 0.59375 -6.015625 C 0.59375 -7.191406 0.875 -8.242188 1.4375 -9.171875 C 2.007812 -10.109375 2.796875 -10.84375 3.796875 -11.375 C 4.796875 -11.90625 5.925781 -12.171875 7.1875 -12.171875 C 8.375 -12.171875 9.453125 -11.921875 10.421875 -11.421875 C 11.398438 -10.929688 12.171875 -10.21875 12.734375 -9.28125 C 13.304688 -8.351562 13.59375 -7.25 13.59375 -5.96875 Z M 7.203125 -9.1875 C 6.554688 -9.1875 6.015625 -9.003906 5.578125 -8.640625 C 5.140625 -8.273438 4.863281 -7.773438 4.75 -7.140625 L 9.65625 -7.140625 C 9.539062 -7.773438 9.265625 -8.273438 8.828125 -8.640625 C 8.390625 -9.003906 7.847656 -9.1875 7.203125 -9.1875 Z M 7.203125 -9.1875 "/></g></g></g><g fill="#000000" fill-opacity="1"><g transform="translate(56.23028, 22.001119)"><g><path d="M 5.34375 -10.53125 C 5.769531 -11.082031 6.328125 -11.492188 7.015625 -11.765625 C 7.703125 -12.035156 8.488281 -12.171875 9.375 -12.171875 L 9.375 -8.390625 C 8.988281 -8.441406 8.671875 -8.46875 8.421875 -8.46875 C 7.515625 -8.46875 6.804688 -8.222656 6.296875 -7.734375 C 5.796875 -7.242188 5.546875 -6.5 5.546875 -5.5 L 5.546875 0 L 1.34375 0 L 1.34375 -11.96875 L 5.34375 -11.96875 Z M 5.34375 -10.53125 "/></g></g></g><g fill="#000000" fill-opacity="1"><g transform="translate(63.607006, 22.001119)"><g><path d="M 13.59375 -5.96875 C 13.59375 -5.9375 13.566406 -5.585938 13.515625 -4.921875 L 4.8125 -4.921875 C 4.988281 -4.304688 5.332031 -3.832031 5.84375 -3.5 C 6.351562 -3.164062 6.988281 -3 7.75 -3 C 8.320312 -3 8.816406 -3.078125 9.234375 -3.234375 C 9.660156 -3.398438 10.085938 -3.671875 10.515625 -4.046875 L 12.71875 -1.75 C 11.5625 -0.445312 9.863281 0.203125 7.625 0.203125 C 6.226562 0.203125 5 -0.0625 3.9375 -0.59375 C 2.875 -1.125 2.050781 -1.859375 1.46875 -2.796875 C 0.882812 -3.742188 0.59375 -4.816406 0.59375 -6.015625 C 0.59375 -7.191406 0.875 -8.242188 1.4375 -9.171875 C 2.007812 -10.109375 2.796875 -10.84375 3.796875 -11.375 C 4.796875 -11.90625 5.925781 -12.171875 7.1875 -12.171875 C 8.375 -12.171875 9.453125 -11.921875 10.421875 -11.421875 C 11.398438 -10.929688 12.171875 -10.21875 12.734375 -9.28125 C 13.304688 -8.351562 13.59375 -7.25 13.59375 -5.96875 Z M 7.203125 -9.1875 C 6.554688 -9.1875 6.015625 -9.003906 5.578125 -8.640625 C 5.140625 -8.273438 4.863281 -7.773438 4.75 -7.140625 L 9.65625 -7.140625 C 9.539062 -7.773438 9.265625 -8.273438 8.828125 -8.640625 C 8.390625 -9.003906 7.847656 -9.1875 7.203125 -9.1875 Z M 7.203125 -9.1875 "/></g></g></g><g fill="#000000" fill-opacity="1"><g transform="translate(75.533512, 22.001119)"><g><path d="M 14.078125 -16.390625 L 14.078125 0 L 10.078125 0 L 10.078125 -1.1875 C 9.296875 -0.257812 8.125 0.203125 6.5625 0.203125 C 5.46875 0.203125 4.472656 -0.0507812 3.578125 -0.5625 C 2.679688 -1.070312 1.96875 -1.796875 1.4375 -2.734375 C 0.914062 -3.679688 0.65625 -4.773438 0.65625 -6.015625 C 0.65625 -7.242188 0.914062 -8.328125 1.4375 -9.265625 C 1.96875 -10.203125 2.679688 -10.921875 3.578125 -11.421875 C 4.472656 -11.921875 5.46875 -12.171875 6.5625 -12.171875 C 7.988281 -12.171875 9.09375 -11.757812 9.875 -10.9375 L 9.875 -16.390625 Z M 7.453125 -3.140625 C 8.171875 -3.140625 8.765625 -3.390625 9.234375 -3.890625 C 9.703125 -4.398438 9.9375 -5.109375 9.9375 -6.015625 C 9.9375 -6.890625 9.703125 -7.578125 9.234375 -8.078125 C 8.773438 -8.585938 8.179688 -8.84375 7.453125 -8.84375 C 6.710938 -8.84375 6.101562 -8.585938 5.625 -8.078125 C 5.15625 -7.578125 4.921875 -6.890625 4.921875 -6.015625 C 4.921875 -5.109375 5.15625 -4.398438 5.625 -3.890625 C 6.101562 -3.390625 6.710938 -3.140625 7.453125 -3.140625 Z M 7.453125 -3.140625 "/></g></g></g><g fill="#000000" fill-opacity="1"><g transform="translate(92.871066, 22.001119)"><g><path d="M 8.875 -12.171875 C 9.96875 -12.171875 10.957031 -11.921875 11.84375 -11.421875 C 12.738281 -10.921875 13.445312 -10.203125 13.96875 -9.265625 C 14.5 -8.328125 14.765625 -7.242188 14.765625 -6.015625 C 14.765625 -4.773438 14.5 -3.679688 13.96875 -2.734375 C 13.445312 -1.796875 12.738281 -1.070312 11.84375 -0.5625 C 10.957031 -0.0507812 9.96875 0.203125 8.875 0.203125 C 7.300781 0.203125 6.125 -0.257812 5.34375 -1.1875 L 5.34375 0 L 1.34375 0 L 1.34375 -16.390625 L 5.546875 -16.390625 L 5.546875 -10.9375 C 6.359375 -11.757812 7.46875 -12.171875 8.875 -12.171875 Z M 8 -3.140625 C 8.738281 -3.140625 9.34375 -3.390625 9.8125 -3.890625 C 10.28125 -4.398438 10.515625 -5.109375 10.515625 -6.015625 C 10.515625 -6.890625 10.28125 -7.578125 9.8125 -8.078125 C 9.34375 -8.585938 8.738281 -8.84375 8 -8.84375 C 7.257812 -8.84375 6.65625 -8.585938 6.1875 -8.078125 C 5.71875 -7.578125 5.484375 -6.890625 5.484375 -6.015625 C 5.484375 -5.109375 5.71875 -4.398438 6.1875 -3.890625 C 6.65625 -3.390625 7.257812 -3.140625 8 -3.140625 Z M 8 -3.140625 "/></g></g></g><g clip-path="url(#ba8a53a528)"><g fill="#000000" fill-opacity="1"><g transform="translate(105.636842, 22.001119)"><g><path d="M 13.96875 -11.96875 L 8.796875 0.484375 C 8.191406 1.960938 7.453125 3 6.578125 3.59375 C 5.710938 4.1875 4.65625 4.484375 3.40625 4.484375 C 2.769531 4.484375 2.128906 4.382812 1.484375 4.1875 C 0.847656 3.988281 0.332031 3.726562 -0.0625 3.40625 L 1.390625 0.46875 C 1.628906 0.6875 1.910156 0.859375 2.234375 0.984375 C 2.566406 1.109375 2.90625 1.171875 3.25 1.171875 C 3.644531 1.171875 3.972656 1.085938 4.234375 0.921875 C 4.492188 0.765625 4.707031 0.507812 4.875 0.15625 L -0.25 -11.96875 L 4.0625 -11.96875 L 7 -4.65625 L 9.96875 -11.96875 Z M 13.96875 -11.96875 "/></g></g></g></g></g></g></svg>